<?xml version="1.0" encoding="UTF-8"?>
<svg id="Ebene_2" data-name="Ebene 2" xmlns="http://www.w3.org/2000/svg" viewBox="0 0 39.53 42.26">
  <defs>
    <style>
      .cls-1 {
        fill: #1d1d1b;
        stroke-width: 0px;
      }
    </style>
  </defs>
  <g id="Ebene_1-2" data-name="Ebene 1">
    <path class="cls-1" d="M.67,39.4c6.76,1.29,13.56,2.19,20.43,2.6,5.57.33,11.32.81,16.43-1.81,1.91-.98,2.63-7.77,1.39-7.13-5.41,2.78-11.75,2.05-17.64,1.63-6.21-.44-12.36-1.31-18.47-2.47-1.98-.38-3.83,6.87-2.14,7.19h0Z"/>
    <path class="cls-1" d="M.67,23.37c6.76,1.29,13.56,2.19,20.43,2.6,5.57.33,11.32.81,16.43-1.81,1.91-.98,2.63-7.77,1.39-7.13-5.41,2.78-11.75,2.05-17.64,1.63-6.21-.44-12.36-1.31-18.47-2.47-1.98-.38-3.83,6.87-2.14,7.19h0Z"/>
    <path class="cls-1" d="M.67,7.2c6.76,1.29,13.56,2.19,20.43,2.6,5.57.33,11.32.81,16.43-1.81,1.91-.98,2.63-7.77,1.39-7.13-5.41,2.78-11.75,2.05-17.64,1.63C15.07,2.04,8.91,1.18,2.8.01.82-.36-1.03,6.88.67,7.2h0Z"/>
  </g>
</svg>