<?xml version="1.0" encoding="UTF-8"?>
<svg id="Ebene_2" data-name="Ebene 2" xmlns="http://www.w3.org/2000/svg" viewBox="0 0 45.84 44.81">
  <defs>
    <style>
      .cls-1 {
        fill: #1d1d1b;
        stroke-width: 0px;
      }
    </style>
  </defs>
  <g id="Ebene_1-2" data-name="Ebene 1">
    <path class="cls-1" d="M.33,4.56c.07,10.94-.98,22.54.35,33.4.52,4.31,1.79,5.42,5.97,5.7,5.83.39,11.73.35,17.57.52,2.6.08,5.21.15,7.81.23s5.97.74,8.48.15c3.01-.7,3.5-3.41,3.87-6.2,1.5-11.25,1.65-22.8,1.31-34.12-.03-1.06-.18-3.73-1.75-3.79C30.49-.05,17.04-.13,3.58.2c-2.6.06-2.69,7.56-.17,7.5,13.45-.33,26.91-.24,40.35.26l-1.75-3.79c.17,5.69.18,11.37-.04,17.05-.12,3.16-.31,6.31-.56,9.46-.12,1.44,0,3.28-.43,4.67-.67,2.19.22,1.38-1.96,1.77-2.66.47-6.09-.18-8.78-.26-2.93-.09-5.86-.17-8.78-.26-5.77-.17-12.39.48-18.01-.82l1.27,1.13c-1.22-2.17-.56-6.18-.58-8.59l-.05-7.89-.1-15.78C3.97.19.3.02.33,4.56H.33Z"/>
    <path class="cls-1" d="M25.82,12.75c-5.15-1.05-11.2.28-13.19,5.76-.9,2.49-.81,5.62.36,8.01s3.73,3.17,6.18,3.68c4.75.99,9-.6,11.3-5.01,1.39-2.66,1.56-4.66.51-7.47s-1.82-3.62-4.52-4.78c-1.77-.76-5.83,3.54-3.83,4.4,2.35,1.01,3.79,2.87,4.18,5.48.16.96.04,1.85-.38,2.68-.55.89-.5.98.16.28-1.24.54-2.81.17-4.07-.12-2.73-.63-4.65-1.46-5.35-4.38-.16-.67-.67-3.63-.23-4.12.77-.86,4.19-.2,5.06-.03,1.94.4,5.71-4.02,3.83-4.4h0Z"/>
    <path class="cls-1" d="M32.6,14.21c.22.16.41.33.6.53l-.2-.22c.34.37.6.78.8,1.25.14.32.65.38.93.38.51,0,1.12-.2,1.56-.43s.97-.56,1.28-1c.2-.29.4-.62.25-.98-.33-.79-.91-1.49-1.6-1.99-1.17-.86-4.91,1.51-3.62,2.46h0Z"/>
  </g>
</svg>