<?xml version="1.0" encoding="UTF-8"?>
<svg id="Ebene_2" data-name="Ebene 2" xmlns="http://www.w3.org/2000/svg" viewBox="0 0 45.76 35.27">
  <defs>
    <style>
      .cls-1 {
        fill: #1d1d1b;
        stroke-width: 0px;
      }
    </style>
  </defs>
  <g id="Ebene_1-2" data-name="Ebene 1">
    <path class="cls-1" d="M.5,6.02C1.6,14.96,1.22,23.7.03,32.62c-.13.99.11,2.4,1.34,2.41,7.31.03,14.62.04,21.92.05,3.99,0,7.97,0,11.96,0,2.15,0,5.42.7,7.33-.48,3.56-2.18,3.13-8.63,3.16-12.06.06-6.98,0-13.96-.01-20.94,0-.8-.47-1.63-1.35-1.59C30.85.55,17.33.87,3.79.58c-2.47-.05-4.76,7.01-1.8,7.08,13.54.29,27.06-.04,40.58-.58l-1.35-1.59c0,4.25,0,8.5.01,12.74,0,3,.74,10.36.07,11.58l2.22-1.92c-6.07,1.1-13.26.11-19.43.11-6.98,0-13.95-.02-20.93-.05l1.34,2.41c1.26-9.43,1.65-18.77.49-28.23C4.48-2.06.2,3.6.5,6.02H.5Z"/>
    <path class="cls-1" d="M10.82,9.77c.66,3.98.85,8.03.85,12.06,0,3.14-1.04,9.01,1.52,11.48,5.05,4.85,14.16-3.6,17.9-6.58,4.77-3.8,8.04-7.71,6.05-13.61-1.26-3.74-3.77-4.85-7.11-7.03-3.68-2.41-7.23-5.18-11.79-5.2-2.49-.01-4.65,7.1-1.67,7.11,4.48.02,8.63,3.66,12.19,6.03,2.27,1.51,4.74,3.44,4.87,6.41l.86-3.58c-1.57,2.69-4.91,4.65-7.34,6.49-2.96,2.25-6.78,5.74-9.87,2.45-2.08-2.22-1.09-7.19-1.18-10.29s-.29-6.49-.82-9.69c-.7-4.18-4.86,1.53-4.45,3.96h0Z"/>
    <path class="cls-1" d="M4.23,10.86c3.3,6.65-1.59,13.59,1.49,20.48,1.47,3.3,8.54-3.54,7.21-6.53-3-6.72,1.93-13.59-1.49-20.48-1.64-3.3-8.65,3.63-7.21,6.53h0Z"/>
    <path class="cls-1" d="M33.7,12.33c1.09.48,2.2,1.09,3.36,1.41,1.31.37,2.77.39,4.12.54,1.04.12.89-4.49.86-5.04-.04-.79-.02-4.81-1.26-4.95-1.35-.16-2.8-.18-4.12-.54-1.15-.32-2.26-.93-3.36-1.41-.8-.35-.88,4.66-.86,5.04.06,1.15-.07,4.37,1.26,4.95h0Z"/>
    <path class="cls-1" d="M28.45,10.71l1.61.88c.2.15.41.18.64.1.37-.04.72-.16,1.05-.35,1.04-.49,2.08-1.25,2.95-1.99s1.81-1.58,2.47-2.55l.44-.7c.21-.3.25-.61.11-.93l-1.61-.88c-.2-.15-.41-.18-.64-.1-.37.04-.72.16-1.05.35-1.04.49-2.08,1.25-2.95,1.99s-1.81,1.58-2.47,2.55l-.44.7c-.21.3-.25.61-.11.93h0Z"/>
    <path class="cls-1" d="M33.19,15.49c2.06,1.82,3.21,5.02,1.22,7.41-1.61,1.94-4.42,2.44-5.92,4.66-.22.33-.6.93.02,1.12,1.3.4,2.57.68,3.92.8s2.41-.35,2.42,1.35c0,1.81,8.45-1.78,8.86-3.87.47-2.39.52-4.63.17-7.04-.13-.91-9.23,2.02-8.86,4.64.3,2.14.24,4.15-.18,6.27l8.86-3.87c0-1.21.17-2.11-1.06-2.55-.83-.3-2.15-.01-3-.13-1-.13-1.96-.4-2.92-.7l.02,1.12c-2.12,1.29-2.62,1.62-1.48.99.55-.29,1.09-.59,1.62-.91.95-.57,1.89-1.17,2.76-1.84,1.33-1.01,2.59-2.18,3.48-3.61,1.8-2.88,1.5-6.21-1.1-8.5-1.99-1.76-9.52,4.06-8.86,4.64h0Z"/>
  </g>
</svg>