<?xml version="1.0" encoding="UTF-8"?>
<svg id="Ebene_2" data-name="Ebene 2" xmlns="http://www.w3.org/2000/svg" viewBox="0 0 45.84 44.81">
  <defs>
    <style>
      .cls-1 {
        stroke: #1d1d1b;
        stroke-miterlimit: 10;
        stroke-width: .75px;
      }

      .cls-1, .cls-2 {
        fill: #1d1d1b;
      }

      .cls-2 {
        stroke-width: 0px;
      }
    </style>
  </defs>
  <g id="Ebene_1-2" data-name="Ebene 1">
    <path class="cls-2" d="M.33,4.56c.07,10.94-.98,22.54.35,33.4.52,4.31,1.79,5.42,5.97,5.7,5.83.39,11.73.35,17.57.52,2.6.08,5.21.15,7.81.23s5.97.74,8.48.15c3.01-.7,3.5-3.41,3.87-6.2,1.5-11.25,1.65-22.8,1.31-34.12-.03-1.06-.18-3.73-1.75-3.79C30.49-.05,17.04-.13,3.58.2c-2.6.06-2.69,7.56-.17,7.5,13.45-.33,26.91-.24,40.35.26l-1.75-3.79c.17,5.69.18,11.37-.04,17.05-.12,3.16-.31,6.31-.56,9.46-.12,1.44,0,3.28-.43,4.67-.67,2.19.22,1.38-1.96,1.77-2.66.47-6.09-.18-8.78-.26-2.93-.09-5.86-.17-8.78-.26-5.77-.17-12.39.48-18.01-.82l1.27,1.13c-1.22-2.17-.56-6.18-.58-8.59l-.05-7.89-.1-15.78C3.97.19.3.02.33,4.56H.33Z"/>
    <g>
      <path class="cls-1" d="M12.76,23.98c-.21.11-.42.22-.62.36-.11-.1-.17-.21-.17-.38.14-.21.31-.43.56-.55.59-.28,1.09-.69,1.57-1.13.76-.71,1.46-1.48,1.86-2.49.07-.17.15-.35.18-.53.06-.41,0-.77-.34-1.06-.21-.18-.41-.38-.66-.52-.28-.17-.55-.34-.84-.45-.39-.15-.8-.21-1.2-.28-.42-.07-.85-.01-1.27-.07-.18-.03-.32.04-.48.08.04.22.08.45-.01.67-.1.21.03.41.07.6.04.24.06.45,0,.69-.1.41-.06.83.01,1.25.01.1.06.21.03.31-.06.17,0,.34,0,.5-.03.66.11,1.3.1,1.96-.03.81.07,1.63.22,2.42.01.04.01.08.01.13-.01.35-.04.7-.04,1.04s.03.66.04.99c.01.28-.15.46-.34.62-.31.15-.57.17-.84.13-.28-.32-.34-.71-.39-1.09-.1-.56-.2-1.12-.25-1.68-.07-.66-.18-1.32-.21-1.99-.01-.48-.01-.97-.07-1.44-.13-.98-.07-1.96-.06-2.94.01-.53.13-1.06.2-1.6.03-.2.07-.39.1-.57-.04-.01-.07-.04-.08-.03-.32.13-.67.15-.99.27-.34.11-.63.32-.78.62.04.43.41.5.57.74-.07.28-.27.22-.45.22-.31-.29-.67-.55-.55-1.09.28-.38.66-.63,1.04-.9.42-.29.87-.48,1.36-.6,1.04-.28,2.1-.38,3.17-.29.45.03.9.17,1.32.38.55.27,1.06.59,1.53.98.18.15.31.35.42.55.29.48.57.97.53,1.58-.01.25-.07.49-.18.7-.15.28-.27.59-.53.81-.11.1-.15.29-.24.46-.25.14-.46.34-.6.63-.67.25-1.05.92-1.69,1.3l-.99.7Z"/>
      <path class="cls-1" d="M20.85,27.93c-.1.04-.18.06-.29.01-.01.1-.03.2-.04.29-.25.18-.52.31-.81.28-.24-.11-.32-.36-.46-.56.04-.15.07-.31.03-.46-.14-.52-.2-1.05-.24-1.58-.03-.31-.03-.63-.13-.94-.01-.04-.03-.08-.01-.13.1-.42-.03-.83-.01-1.25.01-.42.01-.84,0-1.26-.01-.56.06-1.11.15-1.65.06-.34.01-.69.08-1.04.07-.32.08-.66.15-.98.07-.29.11-.6.17-.94-.81-.1-1.5.29-2.2.63.21.1.48-.08.67.13.06.14.06.28-.01.42q-.22.1-.56,0c-.15.03-.32.15-.56.06-.2-.27-.35-.62-.5-.97.04-.22.2-.34.34-.45.57-.45,1.22-.76,1.9-.92.56-.14,1.13-.25,1.72-.2.14.01.28.03.41-.04.11-.07.24-.06.35-.03.63.11,1.27.14,1.91.31.39.1.78.15,1.16.31.87.35,1.65.85,2.27,1.58.49.59.84,1.27.9,2.09,0,.08.03.17.06.25.06.18.06.38,0,.56-.1.35-.2.69-.22,1.05-.01.2-.08.41-.17.59-.21.42-.45.84-.69,1.26-.06.1-.15.17-.24.25-.25.28-.55.52-.78.83-.42.55-1.01.85-1.6,1.13-.13.06-.24.13-.34.22-.17.15-.32.32-.56.34-.06,0-.11.06-.17.1-.25.17-.49.32-.83.35-.28.03-.55.21-.81.34h-.03ZM26.32,20.3c-.07-.28-.07-.57-.2-.85-.39-.41-.85-.76-1.4-.97-.24-.08-.46-.24-.71-.25-.31-.01-.6-.1-.9-.18-.14-.04-.29-.08-.45-.08-.31,0-.6-.08-.9-.14-.38-.07-.77-.13-1.12.15-.03.31-.03.6.08.88-.15.45-.2.91-.17,1.39.01.14.01.29,0,.43-.08.74-.18,1.48-.15,2.24.01.24.01.46-.06.7-.06.2-.06.41,0,.6.07.24.07.48,0,.71-.03.08-.04.17-.04.25.01.52,0,1.04,0,1.55,0,.17.03.32.15.43.03,0,.06.01.07,0,.49-.29.98-.59,1.47-.88,1.02-.63,1.92-1.43,2.73-2.34.5-.56.85-1.22,1.2-1.88.06-.11.1-.24.11-.36.03-.27.11-.5.15-.76.04-.21.15-.42.1-.64h.01Z"/>
      <path class="cls-1" d="M29.38,15.8c.03-.14,0-.29.07-.46.2-.18.46-.06.69-.18.24-.14.53-.13.81-.13.31,0,.62-.01.92-.03.53-.01,1.05.08,1.57.11.48.03.92.21,1.4.18.13,0,.25.04.36.08.52.17,1.08.11,1.61.36.21.24.22.59.34.91-.04.13-.06.28-.2.36-.2.04-.29-.13-.39-.25-.18-.24-.41-.32-.69-.34-.53-.04-1.08-.03-1.6-.24-.1-.04-.2-.03-.31-.01-.27.04-.55.08-.8-.08-.11-.07-.24-.03-.36-.03-.41-.01-.8.01-1.2-.04-.28-.04-.59-.04-.88.01.06.34.06.67.13.99.04.2.06.42-.03.62-.01.04-.01.08-.01.13.06.66-.04,1.32-.07,1.98-.03.77,0,1.54-.03,2.31-.01.35-.06.69.01,1.02.03.13.01.27-.07.43,1.02-.17,2.02-.43,3.01-.25q.18.34.07.62c-.25-.06-.48.03-.64.21-.81.03-1.61,0-2.4.18.03.81.18,1.61.2,2.44.08.15.24.29.11.53-.29.27-.69.35-1.08.46-.11-.04-.24-.08-.36-.13-.42-.34-.48-.84-.55-1.33-.03-.21-.06-.42-.1-.63-.11-.49-.2-1-.21-1.51-.01-.56-.08-1.12-.03-1.67.07-.6-.03-1.2.11-1.79.01-.08,0-.18,0-.27-.01-.73.11-1.44.24-2.16.07-.39.14-.78.2-1.19s.1-.81.18-1.2l-.03-.03Z"/>
    </g>
  </g>
</svg>