<?xml version="1.0" encoding="UTF-8"?>
<svg id="Ebene_2" data-name="Ebene 2" xmlns="http://www.w3.org/2000/svg" viewBox="0 0 32.68 39.96">
  <defs>
    <style>
      .cls-1 {
        fill: #1d1d1b;
        stroke-width: 0px;
      }
    </style>
  </defs>
  <g id="Ebene_1-2" data-name="Ebene 1">
    <path class="cls-1" d="M32.67,6.57C28.5.32,17.05-2.53,10.83,2.81c-3.19,2.74-2.91,9.09-3.01,12.81-.23,8.04.32,16.05,1.49,24.01.14.98,7.49-.4,7.29-1.78-1.38-9.37-2.2-19.18-1.28-28.64.14-1.49.37-2.86.79-4.3s1.82-3.04-.35-2.29c3.23-1.12,8.18,3.57,9.62,5.73,1.01,1.51,7.53-1.41,7.29-1.78h0Z"/>
    <path class="cls-1" d="M2.18,22.82h18.07c2.81,0,7.25-4.39,2.37-4.39H4.55c-2.81,0-7.25,4.39-2.37,4.39h0Z"/>
  </g>
</svg>